#N canvas 454 292 828 443 10;
#X text 441 44 C;
#X text 454 44 C#;
#X text 473 44 D;
#X text 487 44 D#;
#X text 505 44 E;
#X text 519 44 F;
#X text 533 44 F#;
#X text 549 44 G;
#X text 562 44 G#;
#X text 579 44 A;
#X text 593 44 A#;
#X text 609 43 B;
#X obj 440 62 bng 15 500 50 0 empty empty empty 17 7 0 10 -262144 -1
-1;
#X obj 457 61 bng 15 500 50 0 empty empty empty 17 7 0 10 -262144 -1
-1;
#X obj 473 61 bng 15 500 50 0 empty empty empty 17 7 0 10 -262144 -1
-1;
#X obj 488 61 bng 15 500 50 0 empty empty empty 17 7 0 10 -262144 -1
-1;
#X obj 503 61 bng 15 500 50 0 empty empty empty 17 7 0 10 -262144 -1
-1;
#X obj 518 61 bng 15 2000 50 0 empty empty empty 17 7 0 10 -262144
-1 -1;
#X obj 533 61 bng 15 2000 50 0 empty empty empty 17 7 0 10 -262144
-1 -1;
#X obj 549 61 bng 15 500 50 0 empty empty empty 17 7 0 10 -262144 -1
-1;
#X obj 564 61 bng 15 2000 50 0 empty empty empty 17 7 0 10 -262144
-1 -1;
#X obj 580 61 bng 15 500 50 0 empty empty empty 17 7 0 10 -262144 -1
-1;
#X obj 595 61 bng 15 500 50 0 empty empty empty 17 7 0 10 -262144 -1
-1;
#X obj 610 61 bng 15 500 50 0 empty empty empty 17 7 0 10 -262144 -1
-1;
#X msg 384 83 0;
#X msg 413 82 1;
#X msg 443 84 2;
#X msg 471 84 3;
#X msg 499 83 4;
#X msg 527 84 5;
#X msg 554 83 6;
#X msg 582 82 7;
#X msg 610 81 8;
#X msg 640 81 9;
#X msg 669 82 10;
#X msg 700 82 11;
#X obj 130 59 bng 15 500 50 0 empty empty empty 17 7 0 10 -262144 -1
-1;
#X obj 147 58 bng 15 500 50 0 empty empty empty 17 7 0 10 -262144 -1
-1;
#X obj 163 58 bng 15 500 50 0 empty empty empty 17 7 0 10 -262144 -1
-1;
#X obj 178 58 bng 15 500 50 0 empty empty empty 17 7 0 10 -262144 -1
-1;
#X obj 193 58 bng 15 500 50 0 empty empty empty 17 7 0 10 -262144 -1
-1;
#X obj 209 58 bng 15 2000 50 0 empty empty empty 17 7 0 10 -262144
-1 -1;
#X obj 223 58 bng 15 2000 50 0 empty empty empty 17 7 0 10 -262144
-1 -1;
#X obj 239 58 bng 15 500 50 0 empty empty empty 17 7 0 10 -262144 -1
-1;
#X obj 254 58 bng 15 2000 50 0 empty empty empty 17 7 0 10 -262144
-1 -1;
#X obj 270 58 bng 15 500 50 0 empty empty empty 17 7 0 10 -262144 -1
-1;
#X obj 285 58 bng 15 500 50 0 empty empty empty 17 7 0 10 -262144 -1
-1;
#X text 131 41 -1;
#X text 150 41 0;
#X text 166 41 1;
#X text 179 42 2;
#X text 198 42 3;
#X text 212 42 4;
#X text 226 42 5;
#X text 242 42 6;
#X text 255 42 7;
#X text 272 42 8;
#X text 286 42 9;
#X msg 62 87 0;
#X msg 91 86 1;
#X msg 121 88 2;
#X msg 149 88 3;
#X msg 177 87 4;
#X msg 205 88 5;
#X msg 232 87 6;
#X msg 260 86 7;
#X msg 288 85 8;
#X msg 318 85 9;
#X msg 33 87 -1;
#X text 141 22 Num de OCTAVA;
#X text 505 24 nota;
#X obj 169 161 + 1;
#X floatatom 166 189 5 0 0 0 - - -;
#X obj 166 211 * 12;
#X obj 340 214 +;
#X floatatom 340 240 5 0 0 0 - - -;
#X obj 315 362 noteout 1;
#X msg 344 319 100;
#X msg 455 211 128;
#X obj 430 242 moses 128;
#X obj 677 320 bendout 1;
#X obj 640 200 hsl 128 15 0 16383 0 0 empty empty empty -2 -8 0 10
-262144 -1 -1 6350 1;
#X floatatom 638 238 5 0 0 0 - - -;
#X msg 161 283 select;
#X floatatom 303 285 5 0 0 0 - - -;
#X msg 638 166 8191;
#X connect 12 0 24 0;
#X connect 13 0 25 0;
#X connect 14 0 26 0;
#X connect 15 0 27 0;
#X connect 16 0 28 0;
#X connect 17 0 29 0;
#X connect 18 0 30 0;
#X connect 19 0 31 0;
#X connect 20 0 32 0;
#X connect 21 0 33 0;
#X connect 22 0 34 0;
#X connect 23 0 35 0;
#X connect 24 0 74 0;
#X connect 25 0 74 0;
#X connect 26 0 74 0;
#X connect 27 0 74 0;
#X connect 28 0 74 0;
#X connect 29 0 74 0;
#X connect 30 0 74 0;
#X connect 31 0 74 0;
#X connect 33 0 74 0;
#X connect 34 0 74 0;
#X connect 35 0 74 0;
#X connect 36 0 68 0;
#X connect 37 0 58 0;
#X connect 38 0 59 0;
#X connect 39 0 60 0;
#X connect 40 0 61 0;
#X connect 41 0 62 0;
#X connect 42 0 63 0;
#X connect 43 0 64 0;
#X connect 44 0 65 0;
#X connect 45 0 66 0;
#X connect 46 0 67 0;
#X connect 58 0 71 0;
#X connect 59 0 71 0;
#X connect 60 0 71 0;
#X connect 61 0 71 0;
#X connect 62 0 71 0;
#X connect 63 0 71 0;
#X connect 64 0 71 0;
#X connect 65 0 71 0;
#X connect 66 0 71 0;
#X connect 67 0 71 0;
#X connect 68 0 71 0;
#X connect 71 0 72 0;
#X connect 72 0 73 0;
#X connect 73 0 74 0;
#X connect 74 0 75 0;
#X connect 75 0 79 0;
#X connect 77 0 76 1;
#X connect 78 0 79 1;
#X connect 79 0 84 0;
#X connect 81 0 82 0;
#X connect 82 0 80 0;
#X connect 84 0 76 0;
#X connect 84 0 77 0;
#X connect 85 0 81 0;
