#N canvas 0 0 1916 997 10;
#N canvas 0 0 1920 997 (subpatch) 0;
#X obj 27 25 knob 80 80 40 240 0 0 empty empty BPM 0 -20 0 8 -262144
-1 -1 0 1;
#X floatatom 27 150 25 40 240 0 - - bpm;
#X msg 276 144 1;
#X msg 514 143 2;
#X msg 753 142 3;
#X obj 186 51 bng 30 250 50 0 empty accent empty 17 7 0 10 -258113
-1 -1;
#X obj 280 50 bng 30 50 10 0 empty beat empty 17 7 0 10 -4160 -1 -1
;
#X text 178 82 accent;
#X text 207 201 Channel 1;
#X obj 317 21 tgl 70 0 inicio empty Start/Stop 17 7 0 10 -262144 -1
-1 0 1;
#X obj 76 199 hradio 25 1 0 2 pos1 empty empty 0 -8 0 10 -262144 -1
-1 0;
#X obj 79 314 hradio 25 1 0 2 pos2 empty empty 0 -8 0 10 -262144 -1
-1 0;
#X obj 80 420 hradio 25 1 0 2 pos3 empty empty 0 -8 0 10 -262144 -1
-1 0;
#X obj 79 523 hradio 25 1 0 2 pos4 empty empty 0 -8 0 10 -262144 -1
-1 0;
#X obj 80 614 hradio 25 1 0 2 pos5 empty empty 0 -8 0 10 -262144 -1
-1 0;
#X obj 78 709 hradio 25 1 0 2 pos6 empty empty 0 -8 0 10 -262144 -1
-1 0;
#X obj 72 814 hradio 25 1 0 2 pos7 empty empty 0 -8 0 10 -262144 -1
-1 0;
#X obj 72 916 hradio 25 1 0 2 pos8 empty empty 0 -8 0 10 -262144 -1
-1 0;
#X obj 72 1020 hradio 25 1 0 2 pos9 empty empty 0 -8 0 10 -262144 -1
-1 0;
#X obj 78 1118 hradio 25 1 0 2 pos10 empty empty 0 -8 0 10 -262144
-1 -1 0;
#X text 22 920 Hi tom;
#X text 8 315 Side stick;
#X text 136 423 Maracas;
#X text 1 426 Pedal hi hat;
#X text 134 526 Hi conga;
#X text 25 527 High tom;
#X text 135 617 low conga;
#X text 30 618 Low tom;
#X text 133 712 Cabasa;
#X text 22 818 Clave;
#X text 126 815 Cowbell;
#X text 22 1023 Ride cymbal;
#X text 127 1022 High timbale;
#X text 135 1116 low timbale;
#X text 29 1124 Crash;
#X text 127 918 Short guiro;
#X obj 268 188 tgl 50 0 1 empty empty 17 7 0 10 -262144 -1 -1 0 1;
#X obj 1426 36 tgl 55 0 metronome empty empty 17 7 0 10 -262144 -1
-1 0 1;
#X text 1425 84 metronome;
#X obj 325 188 tgl 50 0 2 empty empty 17 7 0 10 -262144 -1 -1 0 1;
#X obj 379 188 tgl 50 0 3 empty empty 17 7 0 10 -262144 -1 -1 0 1;
#X obj 433 188 tgl 50 0 4 empty empty 17 7 0 10 -262144 -1 -1 0 1;
#X obj 512 189 tgl 50 0 5 empty empty 17 7 0 10 -262144 -1 -1 0 1;
#X obj 566 188 tgl 50 0 6 empty empty 17 7 0 10 -262144 -1 -1 0 1;
#X obj 620 188 tgl 50 0 7 empty empty 17 7 0 10 -262144 -1 -1 0 1;
#X obj 673 188 tgl 50 0 8 empty empty 17 7 0 10 -262144 -1 -1 0 1;
#X obj 752 188 tgl 50 0 9 empty empty 17 7 0 10 -262144 -1 -1 0 1;
#X obj 806 188 tgl 50 0 10 empty empty 17 7 0 10 -262144 -1 -1 0 1
;
#X obj 860 188 tgl 50 0 11 empty empty 17 7 0 10 -262144 -1 -1 0 1
;
#X obj 914 188 tgl 50 0 12 empty empty 17 7 0 10 -262144 -1 -1 0 1
;
#X msg 994 142 4;
#X obj 994 187 tgl 50 0 13 empty empty 17 7 0 10 -262144 -1 -1 0 1
;
#X obj 1048 187 tgl 50 0 14 empty empty 17 7 0 10 -262144 -1 -1 0 1
;
#X obj 1102 187 tgl 50 0 15 empty empty 17 7 0 10 -262144 -1 -1 0 1
;
#X obj 1156 187 tgl 50 0 16 empty empty 17 7 0 10 -262144 -1 -1 0 1
;
#X obj 407 43 bng 45 250 50 0 restart empty empty 17 7 0 10 -262144
-1 -1;
#X text 411 87 Restart;
#X obj 27 116 i;
#X floatatom 618 50 5 0 0 0 - compas -;
#X obj 272 245 bng 15 250 50 0 1secuencia_1 uno empty 17 7 0 10 -262144
-1 -1;
#X obj 340 244 bng 15 250 50 0 1secuencia_2 dos empty 17 7 0 10 -262144
-1 -1;
#X obj 392 243 bng 15 250 50 0 1secuencia_3 tres empty 17 7 0 10 -262144
-1 -1;
#X obj 448 244 bng 15 250 50 0 1secuencia_4 cuatro empty 17 7 0 10
-262144 -1 -1;
#X obj 535 242 bng 15 250 50 0 1secuencia_5 cinco empty 17 7 0 10 -262144
-1 -1;
#X obj 590 243 bng 15 250 50 0 1secuencia_6 seis empty 17 7 0 10 -262144
-1 -1;
#X obj 643 241 bng 15 250 50 0 1secuencia_7 siete empty 17 7 0 10 -262144
-1 -1;
#X obj 698 243 bng 15 250 50 0 1secuencia_8 ocho empty 17 7 0 10 -262144
-1 -1;
#X obj 770 243 bng 15 250 50 0 1secuencia_9 nueve empty 17 7 0 10 -262144
-1 -1;
#X obj 825 244 bng 15 250 50 0 1secuencia_10 diez empty 17 7 0 10 -262144
-1 -1;
#X obj 878 243 bng 15 250 50 0 1secuencia_11 once empty 17 7 0 10 -262144
-1 -1;
#X obj 933 244 bng 15 250 50 0 1secuencia_12 doce empty 17 7 0 10 -262144
-1 -1;
#X obj 1011 242 bng 15 250 50 0 1secuencia_13 trece empty 17 7 0 10
-262144 -1 -1;
#X obj 1066 243 bng 15 250 50 0 1secuencia_14 catorce empty 17 7 0
10 -262144 -1 -1;
#X obj 1118 242 bng 15 250 50 0 1secuencia_15 quince empty 17 7 0 10
-262144 -1 -1;
#X obj 1174 243 bng 15 250 50 0 1secuencia_16 diesciseis empty 17 7
0 10 -262144 -1 -1;
#X obj 672 44 hradio 45 1 1 16 empty tempo_grid Tempo_Grid 0 -8 0 10
-262144 -1 -1 1;
#X text 622 68 Bar;
#X obj 865 94 bng 15 250 50 0 empty empty empty 17 7 0 10 -262144 -1
-1;
#X obj 1044 96 bng 15 250 50 0 empty empty empty 17 7 0 10 -262144
-1 -1;
#X obj 1234 94 bng 15 250 50 0 empty empty empty 17 7 0 10 -262144
-1 -1;
#X text 279 83 subd;
#X obj 233 50 bng 30 250 50 0 empty Beat empty 17 7 0 10 -262144 -1
-1;
#X text 232 84 beat;
#X text 1256 132 MIX CELL;
#X obj 1257 179 knob 40 40 0 127 0 0 C1Mix_1 empty empty 0 -8 0 8 -262144
-1 -1 0 1;
#X obj 1260 230 hsl 40 15 0 127 0 0 empty empty empty -2 -8 0 10 -262144
-1 -1 0 1;
#X obj 1306 179 knob 40 40 0 127 0 0 empty empty empty 0 -8 0 8 -262144
-1 -1 0 1;
#X obj 1309 230 hsl 40 15 0 127 0 0 empty empty empty -2 -8 0 10 -262144
-1 -1 0 1;
#X obj 1357 178 knob 40 40 0 127 0 0 empty empty empty 0 -8 0 8 -262144
-1 -1 0 1;
#X obj 1360 229 hsl 40 15 0 127 0 0 empty empty empty -2 -8 0 10 -262144
-1 -1 0 1;
#X obj 1405 178 knob 40 40 0 127 0 0 empty empty empty 0 -8 0 8 -262144
-1 -1 0 1;
#X obj 1408 229 hsl 40 15 0 127 0 0 empty empty empty -2 -8 0 10 -262144
-1 -1 0 1;
#X obj 1476 177 knob 40 40 0 127 0 0 empty empty empty 0 -8 0 8 -262144
-1 -1 0 1;
#X obj 1479 228 hsl 40 15 0 127 0 0 empty empty empty -2 -8 0 10 -262144
-1 -1 0 1;
#X obj 1525 177 knob 40 40 0 127 0 0 empty empty empty 0 -8 0 8 -262144
-1 -1 0 1;
#X obj 1528 228 hsl 40 15 0 127 0 0 empty empty empty -2 -8 0 10 -262144
-1 -1 0 1;
#X obj 1576 176 knob 40 40 0 127 0 0 empty empty empty 0 -8 0 8 -262144
-1 -1 0 1;
#X obj 1579 227 hsl 40 15 0 127 0 0 empty empty empty -2 -8 0 10 -262144
-1 -1 0 1;
#X obj 1624 176 knob 40 40 0 127 0 0 empty empty empty 0 -8 0 8 -262144
-1 -1 0 1;
#X obj 1627 227 hsl 40 15 0 127 0 0 empty empty empty -2 -8 0 10 -262144
-1 -1 0 1;
#X obj 1696 176 knob 40 40 0 127 0 0 empty empty empty 0 -8 0 8 -262144
-1 -1 0 1;
#X obj 1699 227 hsl 40 15 0 127 0 0 empty empty empty -2 -8 0 10 -262144
-1 -1 0 1;
#X obj 1745 176 knob 40 40 0 127 0 0 empty empty empty 0 -8 0 8 -262144
-1 -1 0 1;
#X obj 1748 227 hsl 40 15 0 127 0 0 empty empty empty -2 -8 0 10 -262144
-1 -1 0 1;
#X obj 1796 175 knob 40 40 0 127 0 0 empty empty empty 0 -8 0 8 -262144
-1 -1 0 1;
#X obj 1799 226 hsl 40 15 0 127 0 0 empty empty empty -2 -8 0 10 -262144
-1 -1 0 1;
#X obj 1844 175 knob 40 40 0 127 0 0 empty empty empty 0 -8 0 8 -262144
-1 -1 0 1;
#X obj 1847 226 hsl 40 15 0 127 0 0 empty empty empty -2 -8 0 10 -262144
-1 -1 0 1;
#X obj 1907 175 knob 40 40 0 127 0 0 empty empty empty 0 -8 0 8 -262144
-1 -1 0 1;
#X obj 1910 226 hsl 40 15 0 127 0 0 empty empty empty -2 -8 0 10 -262144
-1 -1 0 1;
#X obj 1956 175 knob 40 40 0 127 0 0 empty empty empty 0 -8 0 8 -262144
-1 -1 0 1;
#X obj 1959 226 hsl 40 15 0 127 0 0 empty empty empty -2 -8 0 10 -262144
-1 -1 0 1;
#X obj 2007 174 knob 40 40 0 127 0 0 empty empty empty 0 -8 0 8 -262144
-1 -1 0 1;
#X obj 2010 225 hsl 40 15 0 127 0 0 empty empty empty -2 -8 0 10 -262144
-1 -1 0 1;
#X obj 2055 174 knob 40 40 0 127 0 0 empty empty empty 0 -8 0 8 -262144
-1 -1 0 1;
#X obj 2058 225 hsl 40 15 0 127 0 0 empty empty empty -2 -8 0 10 -262144
-1 -1 0 1;
#X obj 1257 284 knob 40 40 0 127 0 0 empty empty empty 0 -8 0 8 -262144
-1 -1 0 1;
#X obj 1260 335 hsl 40 15 0 127 0 0 empty empty empty -2 -8 0 10 -262144
-1 -1 0 1;
#X obj 1306 284 knob 40 40 0 127 0 0 empty empty empty 0 -8 0 8 -262144
-1 -1 0 1;
#X obj 1309 335 hsl 40 15 0 127 0 0 empty empty empty -2 -8 0 10 -262144
-1 -1 0 1;
#X obj 1357 283 knob 40 40 0 127 0 0 empty empty empty 0 -8 0 8 -262144
-1 -1 0 1;
#X obj 1360 334 hsl 40 15 0 127 0 0 empty empty empty -2 -8 0 10 -262144
-1 -1 0 1;
#X obj 1405 283 knob 40 40 0 127 0 0 empty empty empty 0 -8 0 8 -262144
-1 -1 0 1;
#X obj 1408 334 hsl 40 15 0 127 0 0 empty empty empty -2 -8 0 10 -262144
-1 -1 0 1;
#X obj 1476 282 knob 40 40 0 127 0 0 empty empty empty 0 -8 0 8 -262144
-1 -1 0 1;
#X obj 1479 333 hsl 40 15 0 127 0 0 empty empty empty -2 -8 0 10 -262144
-1 -1 0 1;
#X obj 1525 282 knob 40 40 0 127 0 0 empty empty empty 0 -8 0 8 -262144
-1 -1 0 1;
#X obj 1528 333 hsl 40 15 0 127 0 0 empty empty empty -2 -8 0 10 -262144
-1 -1 0 1;
#X obj 1576 281 knob 40 40 0 127 0 0 empty empty empty 0 -8 0 8 -262144
-1 -1 0 1;
#X obj 1579 332 hsl 40 15 0 127 0 0 empty empty empty -2 -8 0 10 -262144
-1 -1 0 1;
#X obj 1624 281 knob 40 40 0 127 0 0 empty empty empty 0 -8 0 8 -262144
-1 -1 0 1;
#X obj 1627 332 hsl 40 15 0 127 0 0 empty empty empty -2 -8 0 10 -262144
-1 -1 0 1;
#X obj 1696 281 knob 40 40 0 127 0 0 empty empty empty 0 -8 0 8 -262144
-1 -1 0 1;
#X obj 1699 332 hsl 40 15 0 127 0 0 empty empty empty -2 -8 0 10 -262144
-1 -1 0 1;
#X obj 1745 281 knob 40 40 0 127 0 0 empty empty empty 0 -8 0 8 -262144
-1 -1 0 1;
#X obj 1748 332 hsl 40 15 0 127 0 0 empty empty empty -2 -8 0 10 -262144
-1 -1 0 1;
#X obj 1796 280 knob 40 40 0 127 0 0 empty empty empty 0 -8 0 8 -262144
-1 -1 0 1;
#X obj 1799 331 hsl 40 15 0 127 0 0 empty empty empty -2 -8 0 10 -262144
-1 -1 0 1;
#X obj 1844 280 knob 40 40 0 127 0 0 empty empty empty 0 -8 0 8 -262144
-1 -1 0 1;
#X obj 1847 331 hsl 40 15 0 127 0 0 empty empty empty -2 -8 0 10 -262144
-1 -1 0 1;
#X obj 1907 280 knob 40 40 0 127 0 0 empty empty empty 0 -8 0 8 -262144
-1 -1 0 1;
#X obj 1910 331 hsl 40 15 0 127 0 0 empty empty empty -2 -8 0 10 -262144
-1 -1 0 1;
#X obj 1956 280 knob 40 40 0 127 0 0 empty empty empty 0 -8 0 8 -262144
-1 -1 0 1;
#X obj 1959 331 hsl 40 15 0 127 0 0 empty empty empty -2 -8 0 10 -262144
-1 -1 0 1;
#X obj 2007 279 knob 40 40 0 127 0 0 empty empty empty 0 -8 0 8 -262144
-1 -1 0 1;
#X obj 2010 330 hsl 40 15 0 127 0 0 empty empty empty -2 -8 0 10 -262144
-1 -1 0 1;
#X obj 2055 279 knob 40 40 0 127 0 0 empty empty empty 0 -8 0 8 -262144
-1 -1 0 1;
#X obj 2058 330 hsl 40 15 0 127 0 0 empty empty empty -2 -8 0 10 -262144
-1 -1 0 1;
#X obj 1260 383 knob 40 40 0 127 0 0 empty empty empty 0 -8 0 8 -262144
-1 -1 0 1;
#X obj 1263 434 hsl 40 15 0 127 0 0 empty empty empty -2 -8 0 10 -262144
-1 -1 0 1;
#X obj 1309 383 knob 40 40 0 127 0 0 empty empty empty 0 -8 0 8 -262144
-1 -1 0 1;
#X obj 1312 434 hsl 40 15 0 127 0 0 empty empty empty -2 -8 0 10 -262144
-1 -1 0 1;
#X obj 1360 382 knob 40 40 0 127 0 0 empty empty empty 0 -8 0 8 -262144
-1 -1 0 1;
#X obj 1363 433 hsl 40 15 0 127 0 0 empty empty empty -2 -8 0 10 -262144
-1 -1 0 1;
#X obj 1408 382 knob 40 40 0 127 0 0 empty empty empty 0 -8 0 8 -262144
-1 -1 0 1;
#X obj 1411 433 hsl 40 15 0 127 0 0 empty empty empty -2 -8 0 10 -262144
-1 -1 0 1;
#X obj 1479 381 knob 40 40 0 127 0 0 empty empty empty 0 -8 0 8 -262144
-1 -1 0 1;
#X obj 1482 432 hsl 40 15 0 127 0 0 empty empty empty -2 -8 0 10 -262144
-1 -1 0 1;
#X obj 1528 381 knob 40 40 0 127 0 0 empty empty empty 0 -8 0 8 -262144
-1 -1 0 1;
#X obj 1531 432 hsl 40 15 0 127 0 0 empty empty empty -2 -8 0 10 -262144
-1 -1 0 1;
#X obj 1579 380 knob 40 40 0 127 0 0 empty empty empty 0 -8 0 8 -262144
-1 -1 0 1;
#X obj 1582 431 hsl 40 15 0 127 0 0 empty empty empty -2 -8 0 10 -262144
-1 -1 0 1;
#X obj 1627 380 knob 40 40 0 127 0 0 empty empty empty 0 -8 0 8 -262144
-1 -1 0 1;
#X obj 1630 431 hsl 40 15 0 127 0 0 empty empty empty -2 -8 0 10 -262144
-1 -1 0 1;
#X obj 1699 380 knob 40 40 0 127 0 0 empty empty empty 0 -8 0 8 -262144
-1 -1 0 1;
#X obj 1702 431 hsl 40 15 0 127 0 0 empty empty empty -2 -8 0 10 -262144
-1 -1 0 1;
#X obj 1748 380 knob 40 40 0 127 0 0 empty empty empty 0 -8 0 8 -262144
-1 -1 0 1;
#X obj 1751 431 hsl 40 15 0 127 0 0 empty empty empty -2 -8 0 10 -262144
-1 -1 0 1;
#X obj 1799 379 knob 40 40 0 127 0 0 empty empty empty 0 -8 0 8 -262144
-1 -1 0 1;
#X obj 1802 430 hsl 40 15 0 127 0 0 empty empty empty -2 -8 0 10 -262144
-1 -1 0 1;
#X obj 1847 379 knob 40 40 0 127 0 0 empty empty empty 0 -8 0 8 -262144
-1 -1 0 1;
#X obj 1850 430 hsl 40 15 0 127 0 0 empty empty empty -2 -8 0 10 -262144
-1 -1 0 1;
#X obj 1910 379 knob 40 40 0 127 0 0 empty empty empty 0 -8 0 8 -262144
-1 -1 0 1;
#X obj 1913 430 hsl 40 15 0 127 0 0 empty empty empty -2 -8 0 10 -262144
-1 -1 0 1;
#X obj 1959 379 knob 40 40 0 127 0 0 empty empty empty 0 -8 0 8 -262144
-1 -1 0 1;
#X obj 1962 430 hsl 40 15 0 127 0 0 empty empty empty -2 -8 0 10 -262144
-1 -1 0 1;
#X obj 2010 378 knob 40 40 0 127 0 0 empty empty empty 0 -8 0 8 -262144
-1 -1 0 1;
#X obj 2013 429 hsl 40 15 0 127 0 0 empty empty empty -2 -8 0 10 -262144
-1 -1 0 1;
#X obj 2058 378 knob 40 40 0 127 0 0 empty empty empty 0 -8 0 8 -262144
-1 -1 0 1;
#X obj 2061 429 hsl 40 15 0 127 0 0 empty empty empty -2 -8 0 10 -262144
-1 -1 0 1;
#X obj 1260 488 knob 40 40 0 127 0 0 empty empty empty 0 -8 0 8 -262144
-1 -1 0 1;
#X obj 1263 539 hsl 40 15 0 127 0 0 empty empty empty -2 -8 0 10 -262144
-1 -1 0 1;
#X obj 1309 488 knob 40 40 0 127 0 0 empty empty empty 0 -8 0 8 -262144
-1 -1 0 1;
#X obj 1312 539 hsl 40 15 0 127 0 0 empty empty empty -2 -8 0 10 -262144
-1 -1 0 1;
#X obj 1360 487 knob 40 40 0 127 0 0 empty empty empty 0 -8 0 8 -262144
-1 -1 0 1;
#X obj 1363 538 hsl 40 15 0 127 0 0 empty empty empty -2 -8 0 10 -262144
-1 -1 0 1;
#X obj 1408 487 knob 40 40 0 127 0 0 empty empty empty 0 -8 0 8 -262144
-1 -1 0 1;
#X obj 1411 538 hsl 40 15 0 127 0 0 empty empty empty -2 -8 0 10 -262144
-1 -1 0 1;
#X obj 1479 486 knob 40 40 0 127 0 0 empty empty empty 0 -8 0 8 -262144
-1 -1 0 1;
#X obj 1482 537 hsl 40 15 0 127 0 0 empty empty empty -2 -8 0 10 -262144
-1 -1 0 1;
#X obj 1528 486 knob 40 40 0 127 0 0 empty empty empty 0 -8 0 8 -262144
-1 -1 0 1;
#X obj 1531 537 hsl 40 15 0 127 0 0 empty empty empty -2 -8 0 10 -262144
-1 -1 0 1;
#X obj 1579 485 knob 40 40 0 127 0 0 empty empty empty 0 -8 0 8 -262144
-1 -1 0 1;
#X obj 1582 536 hsl 40 15 0 127 0 0 empty empty empty -2 -8 0 10 -262144
-1 -1 0 1;
#X obj 1627 485 knob 40 40 0 127 0 0 empty empty empty 0 -8 0 8 -262144
-1 -1 0 1;
#X obj 1630 536 hsl 40 15 0 127 0 0 empty empty empty -2 -8 0 10 -262144
-1 -1 0 1;
#X obj 1699 485 knob 40 40 0 127 0 0 empty empty empty 0 -8 0 8 -262144
-1 -1 0 1;
#X obj 1702 536 hsl 40 15 0 127 0 0 empty empty empty -2 -8 0 10 -262144
-1 -1 0 1;
#X obj 1748 485 knob 40 40 0 127 0 0 empty empty empty 0 -8 0 8 -262144
-1 -1 0 1;
#X obj 1751 536 hsl 40 15 0 127 0 0 empty empty empty -2 -8 0 10 -262144
-1 -1 0 1;
#X obj 1799 484 knob 40 40 0 127 0 0 empty empty empty 0 -8 0 8 -262144
-1 -1 0 1;
#X obj 1802 535 hsl 40 15 0 127 0 0 empty empty empty -2 -8 0 10 -262144
-1 -1 0 1;
#X obj 1847 484 knob 40 40 0 127 0 0 empty empty empty 0 -8 0 8 -262144
-1 -1 0 1;
#X obj 1850 535 hsl 40 15 0 127 0 0 empty empty empty -2 -8 0 10 -262144
-1 -1 0 1;
#X obj 1910 484 knob 40 40 0 127 0 0 empty empty empty 0 -8 0 8 -262144
-1 -1 0 1;
#X obj 1913 535 hsl 40 15 0 127 0 0 empty empty empty -2 -8 0 10 -262144
-1 -1 0 1;
#X obj 1959 484 knob 40 40 0 127 0 0 empty empty empty 0 -8 0 8 -262144
-1 -1 0 1;
#X obj 1962 535 hsl 40 15 0 127 0 0 empty empty empty -2 -8 0 10 -262144
-1 -1 0 1;
#X obj 2010 483 knob 40 40 0 127 0 0 empty empty empty 0 -8 0 8 -262144
-1 -1 0 1;
#X obj 2013 534 hsl 40 15 0 127 0 0 empty empty empty -2 -8 0 10 -262144
-1 -1 0 1;
#X obj 2058 483 knob 40 40 0 127 0 0 empty empty empty 0 -8 0 8 -262144
-1 -1 0 1;
#X obj 2061 534 hsl 40 15 0 127 0 0 empty empty empty -2 -8 0 10 -262144
-1 -1 0 1;
#X text -6 196 Acoustic Bass Drum;
#X text 127 200 Bass drum 1;
#X text 2 710 Open hi hat;
#X obj 269 301 tgl 50 0 c2_1 empty empty 17 7 0 10 -262144 -1 -1 0
1;
#X obj 326 301 tgl 50 0 c2_2 empty empty 17 7 0 10 -262144 -1 -1 0
1;
#X obj 380 301 tgl 50 0 c2_3 empty empty 17 7 0 10 -262144 -1 -1 0
1;
#X obj 434 301 tgl 50 0 c2_4 empty empty 17 7 0 10 -262144 -1 -1 0
1;
#X obj 513 302 tgl 50 0 c2_5 empty empty 17 7 0 10 -262144 -1 -1 0
1;
#X obj 567 301 tgl 50 0 c2_6 empty empty 17 7 0 10 -262144 -1 -1 0
1;
#X obj 621 301 tgl 50 0 c2_7 empty empty 17 7 0 10 -262144 -1 -1 0
1;
#X obj 674 301 tgl 50 0 c2_8 empty empty 17 7 0 10 -262144 -1 -1 0
1;
#X obj 753 301 tgl 50 0 c2_9 empty empty 17 7 0 10 -262144 -1 -1 0
1;
#X obj 807 301 tgl 50 0 c2_10 empty empty 17 7 0 10 -262144 -1 -1 0
1;
#X obj 861 301 tgl 50 0 c2_11 empty empty 17 7 0 10 -262144 -1 -1 0
1;
#X obj 915 301 tgl 50 0 c2_12 empty empty 17 7 0 10 -262144 -1 -1 0
1;
#X obj 995 300 tgl 50 0 c2_13 empty empty 17 7 0 10 -262144 -1 -1 0
1;
#X obj 1049 300 tgl 50 0 c2_14 empty empty 17 7 0 10 -262144 -1 -1
0 1;
#X obj 1103 300 tgl 50 0 c2_15 empty empty 17 7 0 10 -262144 -1 -1
0 1;
#X obj 1157 300 tgl 50 0 c2_16 empty empty 17 7 0 10 -262144 -1 -1
0 1;
#X obj 273 358 bng 15 250 50 0 1secuencia_1 uno empty 17 7 0 10 -262144
-1 -1;
#X obj 341 357 bng 15 250 50 0 1secuencia_2 dos empty 17 7 0 10 -262144
-1 -1;
#X obj 393 356 bng 15 250 50 0 1secuencia_3 tres empty 17 7 0 10 -262144
-1 -1;
#X obj 449 357 bng 15 250 50 0 1secuencia_4 cuatro empty 17 7 0 10
-262144 -1 -1;
#X obj 536 355 bng 15 250 50 0 1secuencia_5 cinco empty 17 7 0 10 -262144
-1 -1;
#X obj 591 356 bng 15 250 50 0 1secuencia_6 seis empty 17 7 0 10 -262144
-1 -1;
#X obj 644 354 bng 15 250 50 0 1secuencia_7 siete empty 17 7 0 10 -262144
-1 -1;
#X obj 699 356 bng 15 250 50 0 1secuencia_8 ocho empty 17 7 0 10 -262144
-1 -1;
#X obj 771 356 bng 15 250 50 0 1secuencia_9 nueve empty 17 7 0 10 -262144
-1 -1;
#X obj 826 357 bng 15 250 50 0 1secuencia_10 diez empty 17 7 0 10 -262144
-1 -1;
#X obj 879 356 bng 15 250 50 0 1secuencia_11 once empty 17 7 0 10 -262144
-1 -1;
#X obj 934 357 bng 15 250 50 0 1secuencia_12 doce empty 17 7 0 10 -262144
-1 -1;
#X obj 1012 355 bng 15 250 50 0 1secuencia_13 trece empty 17 7 0 10
-262144 -1 -1;
#X obj 1067 356 bng 15 250 50 0 1secuencia_14 catorce empty 17 7 0
10 -262144 -1 -1;
#X obj 1119 355 bng 15 250 50 0 1secuencia_15 quince empty 17 7 0 10
-262144 -1 -1;
#X obj 1175 356 bng 15 250 50 0 1secuencia_16 diesciseis empty 17 7
0 10 -262144 -1 -1;
#X text 131 317 Acoustic Snare;
#X text 208 315 Channel 2;
#X text 1254 150 Channel 1;
#X text 1253 255 Channel 2;
#X text 1256 354 Channel 3;
#X text 1257 459 Channel 4;
#X obj 1262 598 knob 40 40 0 127 0 0 empty empty empty 0 -8 0 8 -262144
-1 -1 0 1;
#X obj 1265 649 hsl 40 15 0 127 0 0 empty empty empty -2 -8 0 10 -262144
-1 -1 0 1;
#X obj 1311 598 knob 40 40 0 127 0 0 empty empty empty 0 -8 0 8 -262144
-1 -1 0 1;
#X obj 1314 649 hsl 40 15 0 127 0 0 empty empty empty -2 -8 0 10 -262144
-1 -1 0 1;
#X obj 1362 597 knob 40 40 0 127 0 0 empty empty empty 0 -8 0 8 -262144
-1 -1 0 1;
#X obj 1365 648 hsl 40 15 0 127 0 0 empty empty empty -2 -8 0 10 -262144
-1 -1 0 1;
#X obj 1410 597 knob 40 40 0 127 0 0 empty empty empty 0 -8 0 8 -262144
-1 -1 0 1;
#X obj 1413 648 hsl 40 15 0 127 0 0 empty empty empty -2 -8 0 10 -262144
-1 -1 0 1;
#X obj 1481 596 knob 40 40 0 127 0 0 empty empty empty 0 -8 0 8 -262144
-1 -1 0 1;
#X obj 1484 647 hsl 40 15 0 127 0 0 empty empty empty -2 -8 0 10 -262144
-1 -1 0 1;
#X obj 1530 596 knob 40 40 0 127 0 0 empty empty empty 0 -8 0 8 -262144
-1 -1 0 1;
#X obj 1533 647 hsl 40 15 0 127 0 0 empty empty empty -2 -8 0 10 -262144
-1 -1 0 1;
#X obj 1581 595 knob 40 40 0 127 0 0 empty empty empty 0 -8 0 8 -262144
-1 -1 0 1;
#X obj 1584 646 hsl 40 15 0 127 0 0 empty empty empty -2 -8 0 10 -262144
-1 -1 0 1;
#X obj 1629 595 knob 40 40 0 127 0 0 empty empty empty 0 -8 0 8 -262144
-1 -1 0 1;
#X obj 1632 646 hsl 40 15 0 127 0 0 empty empty empty -2 -8 0 10 -262144
-1 -1 0 1;
#X obj 1701 595 knob 40 40 0 127 0 0 empty empty empty 0 -8 0 8 -262144
-1 -1 0 1;
#X obj 1704 646 hsl 40 15 0 127 0 0 empty empty empty -2 -8 0 10 -262144
-1 -1 0 1;
#X obj 1750 595 knob 40 40 0 127 0 0 empty empty empty 0 -8 0 8 -262144
-1 -1 0 1;
#X obj 1753 646 hsl 40 15 0 127 0 0 empty empty empty -2 -8 0 10 -262144
-1 -1 0 1;
#X obj 1801 594 knob 40 40 0 127 0 0 empty empty empty 0 -8 0 8 -262144
-1 -1 0 1;
#X obj 1804 645 hsl 40 15 0 127 0 0 empty empty empty -2 -8 0 10 -262144
-1 -1 0 1;
#X obj 1849 594 knob 40 40 0 127 0 0 empty empty empty 0 -8 0 8 -262144
-1 -1 0 1;
#X obj 1852 645 hsl 40 15 0 127 0 0 empty empty empty -2 -8 0 10 -262144
-1 -1 0 1;
#X obj 1912 594 knob 40 40 0 127 0 0 empty empty empty 0 -8 0 8 -262144
-1 -1 0 1;
#X obj 1915 645 hsl 40 15 0 127 0 0 empty empty empty -2 -8 0 10 -262144
-1 -1 0 1;
#X obj 1961 594 knob 40 40 0 127 0 0 empty empty empty 0 -8 0 8 -262144
-1 -1 0 1;
#X obj 1964 645 hsl 40 15 0 127 0 0 empty empty empty -2 -8 0 10 -262144
-1 -1 0 1;
#X obj 2012 593 knob 40 40 0 127 0 0 empty empty empty 0 -8 0 8 -262144
-1 -1 0 1;
#X obj 2015 644 hsl 40 15 0 127 0 0 empty empty empty -2 -8 0 10 -262144
-1 -1 0 1;
#X obj 2060 593 knob 40 40 0 127 0 0 empty empty empty 0 -8 0 8 -262144
-1 -1 0 1;
#X obj 2063 644 hsl 40 15 0 127 0 0 empty empty empty -2 -8 0 10 -262144
-1 -1 0 1;
#X text 1259 569 Channel 5;
#X obj 269 404 tgl 50 0 1 empty empty 17 7 0 10 -262144 -1 -1 0 1;
#X obj 326 404 tgl 50 0 2 empty empty 17 7 0 10 -262144 -1 -1 0 1;
#X obj 380 404 tgl 50 0 3 empty empty 17 7 0 10 -262144 -1 -1 0 1;
#X obj 434 404 tgl 50 0 4 empty empty 17 7 0 10 -262144 -1 -1 0 1;
#X obj 513 405 tgl 50 0 5 empty empty 17 7 0 10 -262144 -1 -1 0 1;
#X obj 567 404 tgl 50 0 6 empty empty 17 7 0 10 -262144 -1 -1 0 1;
#X obj 621 404 tgl 50 0 7 empty empty 17 7 0 10 -262144 -1 -1 0 1;
#X obj 674 404 tgl 50 0 8 empty empty 17 7 0 10 -262144 -1 -1 0 1;
#X obj 753 404 tgl 50 0 9 empty empty 17 7 0 10 -262144 -1 -1 0 1;
#X obj 807 404 tgl 50 0 10 empty empty 17 7 0 10 -262144 -1 -1 0 1
;
#X obj 861 404 tgl 50 0 11 empty empty 17 7 0 10 -262144 -1 -1 0 1
;
#X obj 915 404 tgl 50 0 12 empty empty 17 7 0 10 -262144 -1 -1 0 1
;
#X obj 995 403 tgl 50 0 13 empty empty 17 7 0 10 -262144 -1 -1 0 1
;
#X obj 1049 403 tgl 50 0 14 empty empty 17 7 0 10 -262144 -1 -1 0 1
;
#X obj 1103 403 tgl 50 0 15 empty empty 17 7 0 10 -262144 -1 -1 0 1
;
#X obj 1157 403 tgl 50 0 16 empty empty 17 7 0 10 -262144 -1 -1 0 1
;
#X obj 273 461 bng 15 250 50 0 1secuencia_1 uno empty 17 7 0 10 -262144
-1 -1;
#X obj 341 460 bng 15 250 50 0 1secuencia_2 dos empty 17 7 0 10 -262144
-1 -1;
#X obj 393 459 bng 15 250 50 0 1secuencia_3 tres empty 17 7 0 10 -262144
-1 -1;
#X obj 449 460 bng 15 250 50 0 1secuencia_4 cuatro empty 17 7 0 10
-262144 -1 -1;
#X obj 536 458 bng 15 250 50 0 1secuencia_5 cinco empty 17 7 0 10 -262144
-1 -1;
#X obj 591 459 bng 15 250 50 0 1secuencia_6 seis empty 17 7 0 10 -262144
-1 -1;
#X obj 644 457 bng 15 250 50 0 1secuencia_7 siete empty 17 7 0 10 -262144
-1 -1;
#X obj 699 459 bng 15 250 50 0 1secuencia_8 ocho empty 17 7 0 10 -262144
-1 -1;
#X obj 771 459 bng 15 250 50 0 1secuencia_9 nueve empty 17 7 0 10 -262144
-1 -1;
#X obj 826 460 bng 15 250 50 0 1secuencia_10 diez empty 17 7 0 10 -262144
-1 -1;
#X obj 879 459 bng 15 250 50 0 1secuencia_11 once empty 17 7 0 10 -262144
-1 -1;
#X obj 934 460 bng 15 250 50 0 1secuencia_12 doce empty 17 7 0 10 -262144
-1 -1;
#X obj 1012 458 bng 15 250 50 0 1secuencia_13 trece empty 17 7 0 10
-262144 -1 -1;
#X obj 1067 459 bng 15 250 50 0 1secuencia_14 catorce empty 17 7 0
10 -262144 -1 -1;
#X obj 1119 458 bng 15 250 50 0 1secuencia_15 quince empty 17 7 0 10
-262144 -1 -1;
#X obj 1175 459 bng 15 250 50 0 1secuencia_16 diesciseis empty 17 7
0 10 -262144 -1 -1;
#X text 208 418 Channel 3;
#X obj 266 504 tgl 50 0 1 empty empty 17 7 0 10 -262144 -1 -1 0 1;
#X obj 323 504 tgl 50 0 2 empty empty 17 7 0 10 -262144 -1 -1 0 1;
#X obj 377 504 tgl 50 0 3 empty empty 17 7 0 10 -262144 -1 -1 0 1;
#X obj 431 504 tgl 50 0 4 empty empty 17 7 0 10 -262144 -1 -1 0 1;
#X obj 510 505 tgl 50 0 5 empty empty 17 7 0 10 -262144 -1 -1 0 1;
#X obj 564 504 tgl 50 0 6 empty empty 17 7 0 10 -262144 -1 -1 0 1;
#X obj 618 504 tgl 50 0 7 empty empty 17 7 0 10 -262144 -1 -1 0 1;
#X obj 671 504 tgl 50 0 8 empty empty 17 7 0 10 -262144 -1 -1 0 1;
#X obj 750 504 tgl 50 0 9 empty empty 17 7 0 10 -262144 -1 -1 0 1;
#X obj 804 504 tgl 50 0 10 empty empty 17 7 0 10 -262144 -1 -1 0 1
;
#X obj 858 504 tgl 50 0 11 empty empty 17 7 0 10 -262144 -1 -1 0 1
;
#X obj 912 504 tgl 50 0 12 empty empty 17 7 0 10 -262144 -1 -1 0 1
;
#X obj 992 503 tgl 50 0 13 empty empty 17 7 0 10 -262144 -1 -1 0 1
;
#X obj 1046 503 tgl 50 0 14 empty empty 17 7 0 10 -262144 -1 -1 0 1
;
#X obj 1100 503 tgl 50 0 15 empty empty 17 7 0 10 -262144 -1 -1 0 1
;
#X obj 1154 503 tgl 50 0 16 empty empty 17 7 0 10 -262144 -1 -1 0 1
;
#X obj 270 561 bng 15 250 50 0 1secuencia_1 uno empty 17 7 0 10 -262144
-1 -1;
#X obj 338 560 bng 15 250 50 0 1secuencia_2 dos empty 17 7 0 10 -262144
-1 -1;
#X obj 390 559 bng 15 250 50 0 1secuencia_3 tres empty 17 7 0 10 -262144
-1 -1;
#X obj 446 560 bng 15 250 50 0 1secuencia_4 cuatro empty 17 7 0 10
-262144 -1 -1;
#X obj 533 558 bng 15 250 50 0 1secuencia_5 cinco empty 17 7 0 10 -262144
-1 -1;
#X obj 588 559 bng 15 250 50 0 1secuencia_6 seis empty 17 7 0 10 -262144
-1 -1;
#X obj 641 557 bng 15 250 50 0 1secuencia_7 siete empty 17 7 0 10 -262144
-1 -1;
#X obj 696 559 bng 15 250 50 0 1secuencia_8 ocho empty 17 7 0 10 -262144
-1 -1;
#X obj 768 559 bng 15 250 50 0 1secuencia_9 nueve empty 17 7 0 10 -262144
-1 -1;
#X obj 823 560 bng 15 250 50 0 1secuencia_10 diez empty 17 7 0 10 -262144
-1 -1;
#X obj 876 559 bng 15 250 50 0 1secuencia_11 once empty 17 7 0 10 -262144
-1 -1;
#X obj 931 560 bng 15 250 50 0 1secuencia_12 doce empty 17 7 0 10 -262144
-1 -1;
#X obj 1009 558 bng 15 250 50 0 1secuencia_13 trece empty 17 7 0 10
-262144 -1 -1;
#X obj 1064 559 bng 15 250 50 0 1secuencia_14 catorce empty 17 7 0
10 -262144 -1 -1;
#X obj 1116 558 bng 15 250 50 0 1secuencia_15 quince empty 17 7 0 10
-262144 -1 -1;
#X obj 1172 559 bng 15 250 50 0 1secuencia_16 diesciseis empty 17 7
0 10 -262144 -1 -1;
#X obj 265 594 tgl 50 0 1 empty empty 17 7 0 10 -262144 -1 -1 0 1;
#X obj 322 594 tgl 50 0 2 empty empty 17 7 0 10 -262144 -1 -1 0 1;
#X obj 376 594 tgl 50 0 3 empty empty 17 7 0 10 -262144 -1 -1 0 1;
#X obj 430 594 tgl 50 0 4 empty empty 17 7 0 10 -262144 -1 -1 0 1;
#X obj 509 595 tgl 50 0 5 empty empty 17 7 0 10 -262144 -1 -1 0 1;
#X obj 563 594 tgl 50 0 6 empty empty 17 7 0 10 -262144 -1 -1 0 1;
#X obj 617 594 tgl 50 0 7 empty empty 17 7 0 10 -262144 -1 -1 0 1;
#X obj 670 594 tgl 50 0 8 empty empty 17 7 0 10 -262144 -1 -1 0 1;
#X obj 749 594 tgl 50 0 9 empty empty 17 7 0 10 -262144 -1 -1 0 1;
#X obj 803 594 tgl 50 0 10 empty empty 17 7 0 10 -262144 -1 -1 0 1
;
#X obj 857 594 tgl 50 0 11 empty empty 17 7 0 10 -262144 -1 -1 0 1
;
#X obj 911 594 tgl 50 0 12 empty empty 17 7 0 10 -262144 -1 -1 0 1
;
#X obj 991 593 tgl 50 0 13 empty empty 17 7 0 10 -262144 -1 -1 0 1
;
#X obj 1045 593 tgl 50 0 14 empty empty 17 7 0 10 -262144 -1 -1 0 1
;
#X obj 1099 593 tgl 50 0 15 empty empty 17 7 0 10 -262144 -1 -1 0 1
;
#X obj 1153 593 tgl 50 0 16 empty empty 17 7 0 10 -262144 -1 -1 0 1
;
#X obj 269 651 bng 15 250 50 0 1secuencia_1 uno empty 17 7 0 10 -262144
-1 -1;
#X obj 337 650 bng 15 250 50 0 1secuencia_2 dos empty 17 7 0 10 -262144
-1 -1;
#X obj 389 649 bng 15 250 50 0 1secuencia_3 tres empty 17 7 0 10 -262144
-1 -1;
#X obj 445 650 bng 15 250 50 0 1secuencia_4 cuatro empty 17 7 0 10
-262144 -1 -1;
#X obj 532 648 bng 15 250 50 0 1secuencia_5 cinco empty 17 7 0 10 -262144
-1 -1;
#X obj 587 649 bng 15 250 50 0 1secuencia_6 seis empty 17 7 0 10 -262144
-1 -1;
#X obj 640 647 bng 15 250 50 0 1secuencia_7 siete empty 17 7 0 10 -262144
-1 -1;
#X obj 695 649 bng 15 250 50 0 1secuencia_8 ocho empty 17 7 0 10 -262144
-1 -1;
#X obj 767 649 bng 15 250 50 0 1secuencia_9 nueve empty 17 7 0 10 -262144
-1 -1;
#X obj 822 650 bng 15 250 50 0 1secuencia_10 diez empty 17 7 0 10 -262144
-1 -1;
#X obj 875 649 bng 15 250 50 0 1secuencia_11 once empty 17 7 0 10 -262144
-1 -1;
#X obj 930 650 bng 15 250 50 0 1secuencia_12 doce empty 17 7 0 10 -262144
-1 -1;
#X obj 1008 648 bng 15 250 50 0 1secuencia_13 trece empty 17 7 0 10
-262144 -1 -1;
#X obj 1063 649 bng 15 250 50 0 1secuencia_14 catorce empty 17 7 0
10 -262144 -1 -1;
#X obj 1115 648 bng 15 250 50 0 1secuencia_15 quince empty 17 7 0 10
-262144 -1 -1;
#X obj 1171 649 bng 15 250 50 0 1secuencia_16 diesciseis empty 17 7
0 10 -262144 -1 -1;
#X text 205 518 Channel 4;
#X text 204 608 Channel 5;
#X obj 1496 69 hsl 128 15 0 127 0 0 vel_metronome empty Metronome_Volume
-2 -8 0 10 -262144 -1 -1 0 1;
#X connect 0 0 57 0;
#X connect 57 0 1 0;
#X connect 84 0 85 0;
#X connect 86 0 87 0;
#X connect 88 0 89 0;
#X connect 90 0 91 0;
#X connect 92 0 93 0;
#X connect 94 0 95 0;
#X connect 96 0 97 0;
#X connect 98 0 99 0;
#X connect 100 0 101 0;
#X connect 102 0 103 0;
#X connect 104 0 105 0;
#X connect 106 0 107 0;
#X connect 108 0 109 0;
#X connect 110 0 111 0;
#X connect 112 0 113 0;
#X connect 114 0 115 0;
#X connect 116 0 117 0;
#X connect 118 0 119 0;
#X connect 120 0 121 0;
#X connect 122 0 123 0;
#X connect 124 0 125 0;
#X connect 126 0 127 0;
#X connect 128 0 129 0;
#X connect 130 0 131 0;
#X connect 132 0 133 0;
#X connect 134 0 135 0;
#X connect 136 0 137 0;
#X connect 138 0 139 0;
#X connect 140 0 141 0;
#X connect 142 0 143 0;
#X connect 144 0 145 0;
#X connect 146 0 147 0;
#X connect 148 0 149 0;
#X connect 150 0 151 0;
#X connect 152 0 153 0;
#X connect 154 0 155 0;
#X connect 156 0 157 0;
#X connect 158 0 159 0;
#X connect 160 0 161 0;
#X connect 162 0 163 0;
#X connect 164 0 165 0;
#X connect 166 0 167 0;
#X connect 168 0 169 0;
#X connect 170 0 171 0;
#X connect 172 0 173 0;
#X connect 174 0 175 0;
#X connect 176 0 177 0;
#X connect 178 0 179 0;
#X connect 180 0 181 0;
#X connect 182 0 183 0;
#X connect 184 0 185 0;
#X connect 186 0 187 0;
#X connect 188 0 189 0;
#X connect 190 0 191 0;
#X connect 192 0 193 0;
#X connect 194 0 195 0;
#X connect 196 0 197 0;
#X connect 198 0 199 0;
#X connect 200 0 201 0;
#X connect 202 0 203 0;
#X connect 204 0 205 0;
#X connect 206 0 207 0;
#X connect 208 0 209 0;
#X connect 210 0 211 0;
#X connect 253 0 254 0;
#X connect 255 0 256 0;
#X connect 257 0 258 0;
#X connect 259 0 260 0;
#X connect 261 0 262 0;
#X connect 263 0 264 0;
#X connect 265 0 266 0;
#X connect 267 0 268 0;
#X connect 269 0 270 0;
#X connect 271 0 272 0;
#X connect 273 0 274 0;
#X connect 275 0 276 0;
#X connect 277 0 278 0;
#X connect 279 0 280 0;
#X connect 281 0 282 0;
#X connect 283 0 284 0;
#X restore -161 -133 pd;
#X obj 219 83 metro;
#X obj 217 -93 /;
#X msg 190 -116 60000;
#X floatatom 217 -68 5 0 0 0 - - -;
#X obj 219 107 bng 15 250 50 0 beat empty empty 17 7 0 10 -262144 -1
-1;
#X obj 238 -159 hsl 128 15 40 240 0 0 empty bpm empty -2 -8 0 10 -262144
-1 -1 0 1;
#X obj 137 58 tgl 25 0 empty inicio empty 17 7 0 10 -262144 -1 -1 0
1;
#X obj 25 203 bng 15 250 50 0 accent empty empty 17 7 0 10 -258113
-1 -1;
#X floatatom 217 9 5 0 0 0 - - milisegundos;
#X msg 169 37 stop;
#X floatatom 250 -115 5 0 0 0 - - -;
#X text 335 -161 beats;
#X floatatom 372 154 5 1 16 0 - - compas;
#X obj 109 240 bng 15 250 50 0 acento empty empty 17 7 0 10 -262144
-1 -1;
#X obj 143 241 bng 15 250 50 0 empty empty empty 17 7 0 10 -262144
-1 -1;
#X obj 177 239 bng 15 250 50 0 empty empty empty 17 7 0 10 -262144
-1 -1;
#X obj 215 238 bng 15 250 50 0 empty empty empty 17 7 0 10 -262144
-1 -1;
#X obj 274 257 bng 15 250 50 0 other_accent empty empty 17 7 0 10 -262144
-1 -1;
#X obj 308 258 bng 15 250 50 0 empty empty empty 17 7 0 10 -262144
-1 -1;
#X obj 345 257 bng 15 250 50 0 empty empty empty 17 7 0 10 -262144
-1 -1;
#X obj 382 254 bng 15 250 50 0 empty empty empty 17 7 0 10 -262144
-1 -1;
#X obj 453 256 bng 15 250 50 0 other_accent empty empty 17 7 0 10 -262144
-1 -1;
#X obj 487 257 bng 15 250 50 0 empty empty empty 17 7 0 10 -262144
-1 -1;
#X obj 521 255 bng 15 250 50 0 empty empty empty 17 7 0 10 -262144
-1 -1;
#X obj 553 255 bng 15 250 50 0 empty empty empty 17 7 0 10 -262144
-1 -1;
#X obj 597 255 bng 15 250 50 0 other_accent empty empty 17 7 0 10 -262144
-1 -1;
#X obj 634 256 bng 15 250 50 0 empty empty empty 17 7 0 10 -262144
-1 -1;
#X obj 666 256 bng 15 250 50 0 empty empty empty 17 7 0 10 -262144
-1 -1;
#X obj 710 256 bng 15 250 50 0 empty empty empty 17 7 0 10 -262144
-1 -1;
#X obj 220 163 hsl 128 15 1 16 0 0 empty empty empty -2 -8 0 10 -262144
-1 -1 0 1;
#X obj 217 136 counter 0 1 16;
#X obj 361 72 bng 15 250 50 0 empty restart reinicio 17 7 0 10 -262144
-1 -1;
#X floatatom 164 151 5 0 0 0 - - otro_contador;
#X obj 25 178 sel 1;
#X obj 122 192 bng 15 250 50 0 beat empty empty 17 7 0 10 -4160 -1
-1;
#X obj 217 -44 / 4;
#X obj 263 -20 / 4;
#X floatatom 246 61 5 0 0 0 - milisegundos -;
#X obj -144 50 sel 1 2 3 4 5 6 7 8 9 10 11 12 13 14 15 16;
#X obj -152 114 bng 15 250 50 0 dos empty empty 17 7 0 10 -262144 -1
-1;
#X obj -133 114 bng 15 250 50 0 tres empty empty 17 7 0 10 -262144
-1 -1;
#X obj -114 114 bng 15 250 50 0 cuatro empty empty 17 7 0 10 -262144
-1 -1;
#X obj -94 114 bng 15 250 50 0 cinco empty empty 17 7 0 10 -262144
-1 -1;
#X obj -74 115 bng 15 250 50 0 seis empty empty 17 7 0 10 -262144 -1
-1;
#X obj -56 114 bng 15 250 50 0 siete empty empty 17 7 0 10 -262144
-1 -1;
#X obj -37 114 bng 15 250 50 0 ocho empty empty 17 7 0 10 -262144 -1
-1;
#X obj -19 114 bng 15 250 50 0 nueve empty empty 17 7 0 10 -262144
-1 -1;
#X obj 2 114 bng 15 250 50 0 diez empty empty 17 7 0 10 -262144 -1
-1;
#X obj 21 114 bng 15 250 50 0 once empty empty 17 7 0 10 -262144 -1
-1;
#X obj 40 114 bng 15 250 50 0 doce empty empty 17 7 0 10 -262144 -1
-1;
#X obj 59 114 bng 15 250 50 0 trece empty empty 17 7 0 10 -262144 -1
-1;
#X obj 78 114 bng 15 250 50 0 catorce empty empty 17 7 0 10 -262144
-1 -1;
#X obj 98 114 bng 15 250 50 0 quince empty empty 17 7 0 10 -262144
-1 -1;
#X obj 117 114 bng 15 250 50 0 diesciseis empty empty 17 7 0 10 -262144
-1 -1;
#X obj -170 114 bng 15 250 50 0 uno empty empty 17 7 0 10 -262144 -1
-1;
#X obj 118 372 hradio 12 1 1 16 tempo_grid empty Tempo_Grid 0 -8 0
10 -262144 -1 -1 7;
#X floatatom -144 14 5 0 0 0 - otro_contador -;
#X floatatom 36 239 5 0 0 0 - - -;
#X msg 381 110 0;
#X obj 53 204 bng 15 250 50 0 Beat empty empty 17 7 0 10 -262144 -1
-1;
#X obj -7 275 sel 5 9 13;
#X obj 31 298 bng 15 250 50 0 Beat empty empty 17 7 0 10 -262144 -1
-1;
#X obj -6 299 bng 15 250 50 0 Beat empty empty 17 7 0 10 -262144 -1
-1;
#X obj 13 298 bng 15 250 50 0 Beat empty empty 17 7 0 10 -262144 -1
-1;
#X obj 1069 -215 vsl 15 50 0 127 0 0 empty vel_metronome empty 0 -9
0 10 -262144 -1 -1 0 1;
#X obj 1029 -265 metro;
#X obj 1030 -304 tgl 30 0 empty metronome Metronomo 17 7 0 10 -262144
-1 -1 0 1;
#X obj 1029 -241 bng 15 250 50 0 empty empty empty 17 7 0 10 -262144
-1 -1;
#X floatatom 1099 -282 5 0 0 0 - milisegundos -;
#X msg 969 -320 stop;
#X obj 1037 -117 noteout 10;
#X obj 220 201 sel 0 1 2 3 4 5 6 7 8 9 10 11 12 13 14 15;
#X msg 108 260 0;
#X msg 143 260 1;
#X msg 177 259 2;
#X msg 215 257 3;
#X msg 274 277 4;
#X msg 308 278 5;
#X msg 345 276 6;
#X msg 382 275 7;
#X msg 453 274 8;
#X msg 487 276 9;
#X msg 521 277 10;
#X msg 554 277 11;
#X msg 597 277 12;
#X msg 635 279 13;
#X msg 670 278 14;
#X msg 706 278 15;
#X obj 851 -243 ctlout 10;
#X msg 876 -267 0;
#X msg 839 -274 46;
#X msg 1030 -222 75;
#X text -83 478 Canal 1;
#X obj 5 454 hradio 15 1 0 2 empty pos1 empty 0 -8 0 10 -262144 -1
-1 0;
#X obj 5 482 sel 0 1;
#X obj 887 261 vsl 15 50 0 127 0 0 empty vel_metronome empty 0 -9 0
10 -262144 -1 -1 2750 1;
#X obj 859 322 noteout 10;
#X msg 859 233 82;
#X obj 1155 -97 tgl 15 0 empty 1 empty 17 7 0 10 -262144 -1 -1 0 14
;
#X obj 1173 -97 tgl 15 0 empty 2 empty 17 7 0 10 -262144 -1 -1 0 14
;
#X obj 1192 -97 tgl 15 0 empty 3 empty 17 7 0 10 -262144 -1 -1 0 14
;
#X obj 1210 -97 tgl 15 0 empty 4 empty 17 7 0 10 -262144 -1 -1 0 14
;
#X obj 1232 -96 tgl 15 0 empty 5 empty 17 7 0 10 -262144 -1 -1 0 14
;
#X obj 1250 -96 tgl 15 0 empty 6 empty 17 7 0 10 -262144 -1 -1 0 14
;
#X obj 1268 -96 tgl 15 0 empty 7 empty 17 7 0 10 -262144 -1 -1 0 14
;
#X obj 1286 -96 tgl 15 0 empty 8 empty 17 7 0 10 -262144 -1 -1 0 14
;
#X obj 1309 -96 tgl 15 0 empty 9 empty 17 7 0 10 -262144 -1 -1 0 14
;
#X obj 1327 -96 tgl 15 0 empty 10 empty 17 7 0 10 -262144 -1 -1 0 14
;
#X obj 1345 -96 tgl 15 0 empty 11 empty 17 7 0 10 -262144 -1 -1 0 14
;
#X obj 1364 -96 tgl 15 0 empty 12 empty 17 7 0 10 -262144 -1 -1 0 14
;
#X obj 1384 -95 tgl 15 0 empty 13 empty 17 7 0 10 -262144 -1 -1 0 14
;
#X obj 1403 -95 tgl 15 0 empty 14 empty 17 7 0 10 -262144 -1 -1 0 14
;
#X obj 1421 -95 tgl 15 0 empty 15 empty 17 7 0 10 -262144 -1 -1 0 14
;
#X obj 1439 -95 tgl 15 0 empty 16 empty 17 7 0 10 -262144 -1 -1 0 14
;
#X obj 1294 -54 moses 1;
#X obj 709 -52 bng 15 250 50 0 empty 1secuencia_2 empty 17 7 0 10 -262144
-1 -1;
#X obj 728 -51 bng 15 250 50 0 empty 1secuencia_3 empty 17 7 0 10 -262144
-1 -1;
#X obj 746 -52 bng 15 250 50 0 empty 1secuencia_4 empty 17 7 0 10 -262144
-1 -1;
#X obj 767 -52 bng 15 250 50 0 empty 1secuencia_5 empty 17 7 0 10 -262144
-1 -1;
#X obj 787 -51 bng 15 250 50 0 empty 1secuencia_6 empty 17 7 0 10 -262144
-1 -1;
#X obj 805 -52 bng 15 250 50 0 empty 1secuencia_7 empty 17 7 0 10 -262144
-1 -1;
#X obj 825 -51 bng 15 250 50 0 empty 1secuencia_8 empty 17 7 0 10 -262144
-1 -1;
#X obj 843 -52 bng 15 250 50 0 empty 1secuencia_9 empty 17 7 0 10 -262144
-1 -1;
#X obj 863 -52 bng 15 250 50 0 empty 1secuencia_10 empty 17 7 0 10
-262144 -1 -1;
#X obj 883 -51 bng 15 250 50 0 empty 1secuencia_11 empty 17 7 0 10
-262144 -1 -1;
#X obj 901 -52 bng 15 250 50 0 empty 1secuencia_12 empty 17 7 0 10
-262144 -1 -1;
#X obj 920 -52 bng 15 250 50 0 empty 1secuencia_13 empty 17 7 0 10
-262144 -1 -1;
#X obj 938 -52 bng 15 250 50 0 empty 1secuencia_14 empty 17 7 0 10
-262144 -1 -1;
#X obj 959 -52 bng 15 250 50 0 empty 1secuencia_15 empty 17 7 0 10
-262144 -1 -1;
#X obj 977 -51 bng 15 250 50 0 empty 1secuencia_16 empty 17 7 0 10
-262144 -1 -1;
#X obj 691 -52 bng 15 250 50 0 empty 1secuencia_1 empty 17 7 0 10 -262144
-1 -1;
#X obj 1208 -10 bng 15 250 50 0 empty empty empty 17 7 0 10 -262144
-1 -1;
#X obj 1334 17 bng 15 250 50 0 empty empty empty 17 7 0 10 -262144
-1 -1;
#X msg 1206 15 0;
#X obj 959 261 vsl 15 50 0 127 0 0 empty vel_metronome empty 0 -9 0
10 -262144 -1 -1 0 1;
#X obj 931 322 noteout 10;
#X msg 931 233 82;
#X obj 1032 262 vsl 15 50 0 127 0 0 empty vel_metronome empty 0 -9
0 10 -262144 -1 -1 0 1;
#X obj 1004 323 noteout 10;
#X msg 1004 234 82;
#X obj 1102 262 vsl 15 50 0 127 0 0 empty vel_metronome empty 0 -9
0 10 -262144 -1 -1 0 1;
#X obj 1074 323 noteout 10;
#X msg 1074 234 82;
#X obj 1173 263 vsl 15 50 0 127 0 0 empty vel_metronome empty 0 -9
0 10 -262144 -1 -1 0 1;
#X obj 1145 324 noteout 10;
#X msg 1145 235 82;
#X obj 1243 264 vsl 15 50 0 127 0 0 empty vel_metronome empty 0 -9
0 10 -262144 -1 -1 0 1;
#X obj 1215 325 noteout 10;
#X msg 1215 236 82;
#X obj 1313 264 vsl 15 50 0 127 0 0 empty vel_metronome empty 0 -9
0 10 -262144 -1 -1 0 1;
#X obj 1285 325 noteout 10;
#X msg 1285 236 82;
#X obj 1385 264 vsl 15 50 0 127 0 0 empty vel_metronome empty 0 -9
0 10 -262144 -1 -1 0 1;
#X obj 1357 325 noteout 10;
#X msg 1357 236 82;
#X obj 1458 265 vsl 15 50 0 127 0 0 empty vel_metronome empty 0 -9
0 10 -262144 -1 -1 0 1;
#X obj 1430 326 noteout 10;
#X msg 1430 237 82;
#X obj 1528 265 vsl 15 50 0 127 0 0 empty vel_metronome empty 0 -9
0 10 -262144 -1 -1 0 1;
#X obj 1500 326 noteout 10;
#X msg 1500 237 82;
#X obj 1599 266 vsl 15 50 0 127 0 0 empty vel_metronome empty 0 -9
0 10 -262144 -1 -1 0 1;
#X obj 1571 327 noteout 10;
#X msg 1571 238 82;
#X obj 890 387 vsl 15 50 0 127 0 0 empty vel_metronome empty 0 -9 0
10 -262144 -1 -1 0 1;
#X obj 862 448 noteout 10;
#X msg 862 359 82;
#X obj 962 387 vsl 15 50 0 127 0 0 empty vel_metronome empty 0 -9 0
10 -262144 -1 -1 0 1;
#X obj 934 448 noteout 10;
#X msg 934 359 82;
#X obj 1035 388 vsl 15 50 0 127 0 0 empty vel_metronome empty 0 -9
0 10 -262144 -1 -1 0 1;
#X obj 1007 449 noteout 10;
#X msg 1007 360 82;
#X obj 1105 388 vsl 15 50 0 127 0 0 empty vel_metronome empty 0 -9
0 10 -262144 -1 -1 0 1;
#X obj 1077 449 noteout 10;
#X msg 1077 360 82;
#X obj 1176 389 vsl 15 50 0 127 0 0 empty vel_metronome empty 0 -9
0 10 -262144 -1 -1 0 1;
#X obj 1148 450 noteout 10;
#X msg 1148 361 82;
#X connect 1 0 5 0;
#X connect 2 0 4 0;
#X connect 3 0 2 0;
#X connect 4 0 36 0;
#X connect 5 0 31 0;
#X connect 6 0 3 0;
#X connect 6 0 11 0;
#X connect 7 0 1 0;
#X connect 10 0 1 0;
#X connect 11 0 2 1;
#X connect 14 0 73 0;
#X connect 15 0 74 0;
#X connect 16 0 75 0;
#X connect 17 0 76 0;
#X connect 18 0 77 0;
#X connect 19 0 78 0;
#X connect 20 0 79 0;
#X connect 21 0 80 0;
#X connect 22 0 81 0;
#X connect 23 0 82 0;
#X connect 24 0 83 0;
#X connect 25 0 84 0;
#X connect 26 0 85 0;
#X connect 27 0 86 0;
#X connect 28 0 87 0;
#X connect 29 0 88 0;
#X connect 30 0 34 0;
#X connect 30 0 35 0;
#X connect 30 0 72 0;
#X connect 31 0 30 0;
#X connect 31 0 33 0;
#X connect 31 0 58 0;
#X connect 31 3 13 0;
#X connect 32 0 31 3;
#X connect 32 0 59 0;
#X connect 34 0 8 0;
#X connect 34 0 60 0;
#X connect 36 0 9 0;
#X connect 38 0 1 1;
#X connect 39 0 55 0;
#X connect 39 1 40 0;
#X connect 39 2 41 0;
#X connect 39 3 42 0;
#X connect 39 4 43 0;
#X connect 39 5 44 0;
#X connect 39 6 45 0;
#X connect 39 7 46 0;
#X connect 39 8 47 0;
#X connect 39 9 48 0;
#X connect 39 10 49 0;
#X connect 39 11 50 0;
#X connect 39 12 51 0;
#X connect 39 13 52 0;
#X connect 39 14 53 0;
#X connect 39 15 54 0;
#X connect 57 0 39 0;
#X connect 58 0 61 0;
#X connect 59 0 13 0;
#X connect 61 0 63 0;
#X connect 61 1 64 0;
#X connect 61 2 62 0;
#X connect 65 0 71 1;
#X connect 66 0 68 0;
#X connect 67 0 66 0;
#X connect 67 0 91 0;
#X connect 68 0 92 0;
#X connect 68 0 65 0;
#X connect 69 0 66 1;
#X connect 70 0 66 0;
#X connect 72 0 14 0;
#X connect 72 1 15 0;
#X connect 72 2 16 0;
#X connect 72 3 17 0;
#X connect 72 4 18 0;
#X connect 72 5 19 0;
#X connect 72 6 20 0;
#X connect 72 7 21 0;
#X connect 72 8 22 0;
#X connect 72 9 23 0;
#X connect 72 10 24 0;
#X connect 72 11 25 0;
#X connect 72 12 26 0;
#X connect 72 13 27 0;
#X connect 72 14 28 0;
#X connect 72 15 29 0;
#X connect 73 0 56 0;
#X connect 74 0 56 0;
#X connect 75 0 56 0;
#X connect 76 0 56 0;
#X connect 77 0 56 0;
#X connect 78 0 56 0;
#X connect 79 0 56 0;
#X connect 80 0 56 0;
#X connect 81 0 56 0;
#X connect 82 0 56 0;
#X connect 83 0 56 0;
#X connect 84 0 56 0;
#X connect 85 0 56 0;
#X connect 86 0 56 0;
#X connect 87 0 56 0;
#X connect 88 0 56 0;
#X connect 90 0 89 1;
#X connect 91 0 89 0;
#X connect 91 0 90 0;
#X connect 92 0 71 0;
#X connect 94 0 95 0;
#X connect 96 0 97 1;
#X connect 98 0 97 0;
#X connect 98 0 96 0;
#X connect 99 0 115 0;
#X connect 100 0 115 0;
#X connect 101 0 115 0;
#X connect 102 0 115 0;
#X connect 103 0 115 0;
#X connect 104 0 115 0;
#X connect 105 0 115 0;
#X connect 106 0 115 0;
#X connect 107 0 115 0;
#X connect 108 0 115 0;
#X connect 109 0 115 0;
#X connect 110 0 115 0;
#X connect 111 0 115 0;
#X connect 112 0 115 0;
#X connect 113 0 115 0;
#X connect 114 0 115 0;
#X connect 115 0 132 0;
#X connect 115 1 133 0;
#X connect 116 0 137 0;
#X connect 117 0 140 0;
#X connect 118 0 143 0;
#X connect 119 0 146 0;
#X connect 120 0 149 0;
#X connect 121 0 152 0;
#X connect 122 0 155 0;
#X connect 123 0 158 0;
#X connect 124 0 161 0;
#X connect 125 0 164 0;
#X connect 126 0 167 0;
#X connect 127 0 170 0;
#X connect 128 0 173 0;
#X connect 129 0 176 0;
#X connect 130 0 179 0;
#X connect 131 0 98 0;
#X connect 132 0 134 0;
#X connect 133 0 96 0;
#X connect 133 0 135 0;
#X connect 133 0 138 0;
#X connect 133 0 141 0;
#X connect 133 0 144 0;
#X connect 133 0 147 0;
#X connect 133 0 150 0;
#X connect 133 0 153 0;
#X connect 133 0 156 0;
#X connect 133 0 159 0;
#X connect 133 0 162 0;
#X connect 133 0 165 0;
#X connect 133 0 168 0;
#X connect 133 0 171 0;
#X connect 133 0 174 0;
#X connect 133 0 177 0;
#X connect 134 0 96 0;
#X connect 134 0 135 0;
#X connect 134 0 138 0;
#X connect 134 0 141 0;
#X connect 134 0 144 0;
#X connect 134 0 147 0;
#X connect 134 0 150 0;
#X connect 134 0 153 0;
#X connect 134 0 156 0;
#X connect 134 0 159 0;
#X connect 134 0 162 0;
#X connect 134 0 165 0;
#X connect 134 0 168 0;
#X connect 134 0 171 0;
#X connect 134 0 174 0;
#X connect 134 0 177 0;
#X connect 135 0 136 1;
#X connect 137 0 136 0;
#X connect 137 0 135 0;
#X connect 138 0 139 1;
#X connect 140 0 139 0;
#X connect 140 0 138 0;
#X connect 141 0 142 1;
#X connect 143 0 142 0;
#X connect 143 0 141 0;
#X connect 144 0 145 1;
#X connect 146 0 145 0;
#X connect 146 0 144 0;
#X connect 147 0 148 1;
#X connect 149 0 148 0;
#X connect 149 0 147 0;
#X connect 150 0 151 1;
#X connect 152 0 151 0;
#X connect 152 0 150 0;
#X connect 153 0 154 1;
#X connect 155 0 154 0;
#X connect 155 0 153 0;
#X connect 156 0 157 1;
#X connect 158 0 157 0;
#X connect 158 0 156 0;
#X connect 159 0 160 1;
#X connect 161 0 160 0;
#X connect 161 0 159 0;
#X connect 162 0 163 1;
#X connect 164 0 163 0;
#X connect 164 0 162 0;
#X connect 165 0 166 1;
#X connect 167 0 166 0;
#X connect 167 0 165 0;
#X connect 168 0 169 1;
#X connect 170 0 169 0;
#X connect 170 0 168 0;
#X connect 171 0 172 1;
#X connect 173 0 172 0;
#X connect 173 0 171 0;
#X connect 174 0 175 1;
#X connect 176 0 175 0;
#X connect 176 0 174 0;
#X connect 177 0 178 1;
#X connect 179 0 178 0;
#X connect 179 0 177 0;
